<svg width="18" height="20" viewBox="0 0 18 20" fill="none" xmlns="http://www.w3.org/2000/svg">
<path d="M7.84411 2C7.01273 2 6.3388 2.67425 6.3388 3.50568C6.3388 4.33712 7.01273 5.01109 7.84411 5.01109C8.67521 5.01109 9.34942 4.33712 9.34942 3.50568C9.34942 2.67425 8.67521 2 7.84411 2ZM7.03322 5.11102C6.14682 5.11298 5.98318 5.67102 5.98318 6.12772V11.4998C5.98318 11.9615 6.35508 12.3349 6.81653 12.3332L10.633 12.3164C10.633 12.3164 11.9469 14.3062 12.6051 15.2996C12.8024 15.5975 13.0648 15.8608 13.4437 15.8608C13.9436 15.8608 14.404 15.4529 14.3492 14.9552C14.3285 14.7601 14.2844 14.5752 14.1662 14.3997C13.5793 13.5248 12.4164 11.6323 11.7773 10.9218C11.6151 10.7413 11.3908 10.6097 11.1275 10.6105L7.9721 10.6218V7.27775L10.2221 8.8334C10.5465 9.05712 10.9872 8.97432 11.2106 8.65011C11.4346 8.32561 11.3521 7.88519 11.0273 7.66119C11.0273 7.66119 8.68784 6.04716 7.51655 5.23902C7.39474 5.15481 7.16963 5.11102 7.03322 5.11102ZM15.7327 6.6167C15.6785 6.6167 15.6241 6.63607 15.5826 6.67761L12.7771 9.48323H8.79956C8.68223 9.48323 8.58876 9.57698 8.58876 9.69432V9.77207C8.58876 9.88968 8.68223 9.98316 8.79956 9.98316H12.8883C12.9517 9.98316 13.0132 9.95846 13.0491 9.92225L15.9379 7.03326C16.0207 6.95018 16.0207 6.81628 15.9379 6.73319L15.8823 6.67761C15.8413 6.63635 15.7863 6.6167 15.7327 6.6167ZM5.5832 8.08337C3.52215 8.70288 2 10.6234 2 12.9331C2 15.753 4.27943 18 7.02199 18C9.12318 18 10.9527 16.6844 11.694 14.8L10.9386 13.6609C10.5962 15.4703 8.998 16.8668 7.02227 16.8668C4.78943 16.8668 3.03376 15.0807 3.03376 12.9331C3.03376 11.2769 4.08211 9.83804 5.58349 9.26653V8.08337H5.5832Z" fill="black" fill-opacity="0.5"/>
</svg>
