<svg width="50" height="26" fill="none" xmlns="http://www.w3.org/2000/svg"><g clip-path="url(#clip0_1_1092)"><path d="M12.5 26H0V0h12.5v26zm25-26v26H50V0H37.5zM25 2.35l-1.7 3.183c-.2.35-.533.317-.883.117L21.167 5l.916 4.883c.2.9-.433.9-.733.5L19.2 7.967 18.85 9.2c-.033.167-.217.333-.483.283l-2.734-.566.717 2.6c.15.583.267.816-.15.966l-.967.45 4.684 3.817c.183.15.283.4.216.633l-.416 1.35c1.616-.183 3.066-.466 4.683-.633.15-.017.383.217.383.383l-.216 4.934h.783l-.117-4.934c0-.166.217-.416.367-.4 1.617.167 3.067.45 4.683.634l-.416-1.35a.606.606 0 01.216-.634l4.684-3.816-.967-.45c-.433-.15-.3-.4-.15-.967l.717-2.6-2.734.6c-.266.033-.45-.133-.483-.283l-.35-1.234-2.15 2.417c-.3.383-.933.383-.733-.5l.916-4.9-1.233.633c-.35.2-.7.234-.883-.116L25 2.35z" fill="#FCFAF6" fill-opacity=".7"/></g><defs><clipPath id="clip0_1_1092"><path fill="#fff" d="M0 0h50v26H0z"/></clipPath></defs></svg>