<svg width="18" height="20" fill="none" xmlns="http://www.w3.org/2000/svg"><path d="M7.844 2a1.506 1.506 0 100 3.011 1.506 1.506 0 000-3.011zm-.81 3.111c-.887.002-1.05.56-1.05 1.017V11.5a.83.83 0 00.833.833l3.816-.017 1.972 2.984c.197.297.46.56.839.56.5 0 .96-.407.905-.905a1.173 1.173 0 00-.183-.555c-.587-.875-1.75-2.768-2.389-3.478a.874.874 0 00-.65-.312l-3.155.012V7.278l2.25 1.555a.71.71 0 00.989-.183.709.709 0 00-.184-.989L7.517 5.24c-.122-.084-.347-.128-.484-.128zm8.699 1.506a.21.21 0 00-.15.06l-2.806 2.806H8.8a.21.21 0 00-.211.211v.078a.21.21 0 00.21.211h4.09a.234.234 0 00.16-.06l2.889-2.89a.212.212 0 000-.3l-.056-.055a.21.21 0 00-.15-.061zM5.583 8.083A5.05 5.05 0 002 12.933C2 15.753 4.28 18 7.022 18c2.101 0 3.93-1.316 4.672-3.2l-.755-1.14a3.963 3.963 0 01-3.917 3.207c-2.233 0-3.988-1.786-3.988-3.934 0-1.656 1.048-3.095 2.55-3.666V8.083z" fill="#000" fill-opacity=".5"/></svg>