<svg width="131" height="32" fill="none" xmlns="http://www.w3.org/2000/svg"><path fill-rule="evenodd" clip-rule="evenodd" d="M99.174 26.252c0 1.63-.635 2.53-1.653 2.53s-1.697-.857-1.697-2.444c0-2.489 1.06-3.99 3.35-4.762v4.676zm4.336 1.143l-.009.004v-8.31c0-1.931 0-3.475-.891-4.72-.976-1.372-2.672-2.144-4.835-2.144-3.35 0-5.301 1.459-5.301 3.646 0 1.416.805 2.274 2.248 2.274 1.272 0 2.035-.773 2.035-1.888 0-.429-.127-.944-.381-1.587a2.27 2.27 0 011.06-.257c1.484 0 1.738 1.2 1.738 3.603v1.115c-4.962 1.587-7.252 3.904-7.252 7.807 0 3.131 1.612 5.062 3.945 5.062 1.575 0 3.027-.82 3.967-2.046.359.74 1.228 1.742 3.307 1.742 1.452 0 2.355-1.274 2.355-1.274v-1.328s-.341.186-.63.186c-.446 0-1.356-.425-1.356-1.885zm-13.966 1.903c-.34-.343-.382-.687-.382-1.116V.514h-5.344V1.93c0 .558.425.73.636.9.34.344.382.687.382 1.116v24.236c0 .43-.042.773-.382 1.116-.211.214-.636.343-.636.9v1.287h6.362V30.2c0-.515-.424-.687-.636-.901zM72.677 14.756h-.424V3.088h.424c3.563 0 4.665 1.673 4.665 5.834 0 4.16-1.102 5.834-4.665 5.834zm5.641-13.212C76.155.514 73.61.514 70.472.514h-4.2v1.202c0 .686.34.729.594.943.552.472.595.901.595 1.373v23.55c0 .729-.043 1.158-.722 1.716-.339.257-.72.3-.72.986v1.201h7.761v-1.2c0-.644-.424-.73-.763-.987-.679-.515-.764-.858-.764-1.416V17.329h.17c6.701 0 9.967-2.83 9.967-8.664 0-3.303-1.528-5.92-4.072-7.121zm35.073 27.41c-1.866 0-2.799-1.758-2.799-5.362v-2.745c0-4.375.679-6.477 2.672-6.477.636 0 1.102.257 1.357.643-.636.43-.976 1.03-.976 1.802 0 1.158.806 1.973 2.036 1.973 1.4 0 2.333-.986 2.333-2.445 0-2.36-1.951-4.118-4.92-4.118-4.326 0-7.125 3.818-7.125 10.553 0 5.876 2.502 9.222 6.404 9.222 3.308 0 5.174-2.059 5.683-6.22l-2.078-.429c-.297 2.446-1.103 3.604-2.587 3.604zm10.315-10.38c0-2.746.678-4.204 1.738-4.204 1.23 0 1.739 1.458 1.739 4.461v1.03h-3.477v-1.287zm2.544 10.51c-2.078 0-2.544-1.76-2.544-5.663v-1.158H131c0-6.778-1.738-10.038-5.81-10.038-3.69 0-5.991 3.818-5.991 10.638 0 5.92 2.174 9.137 6.118 9.137 3.266 0 5.089-1.93 5.556-5.877l-2.163-.386c-.254 2.188-1.145 3.346-2.46 3.346zM10.985 18.873c0 7.25-.34 10.51-2.757 10.51-2.417 0-2.8-3.26-2.8-10.51v-5.791c0-7.25.383-10.467 2.8-10.467s2.757 3.218 2.757 10.467v5.791zM8.228 0C3.35 0 0 5.576 0 16c0 10.38 3.35 16 8.228 16 4.877 0 8.186-5.62 8.186-16 0-10.38-3.309-16-8.186-16zm23.344 27.882V12.697h-5.345v1.458c0 .558.425.687.637.858.34.344.381.687.381 1.115v11.668c-.593.687-1.23 1.073-1.95 1.073-1.23 0-1.443-1.073-1.443-3.218V12.697h-5.301v1.458c0 .558.424.687.636.858.34.344.382.687.382 1.115v9.052c0 4.504.424 6.82 3.69 6.82 1.527 0 3.298-.847 4.372-2.677 0 0 .398 2.519 3.675 2.519 1.234 0 2.232-1.275 2.232-1.275V29.24s-.341.186-.63.186c-.41 0-1.206-.36-1.336-1.544zm12.91-15.593c-1.57 0-3.18 1.244-4.199 3.56v-3.217h-5.216v1.46c0 .556.423.685.635.857.383.386.425.772.425 1.287v11.839c0 .515-.042.9-.425 1.287-.212.215-.635.343-.635.9v1.288h6.615v-1.287c0-.687-.466-.687-.763-.9-.466-.344-.509-.73-.509-1.288v-3.989c0-4.382.129-7.061 2.346-8.431.203.808.94 1.511 2.163 1.511 1.277 0 1.785-.904 1.97-1.587l.006-.022.033-.14.017-.083c.029-.158.039-.291.039-.38l-.004-.002c.001-.03.004-.058.004-.089 0-1.587-1.018-2.574-2.502-2.574z" fill="#35312E"/></svg>